<?xml version="1.0" standalone="no"?>
<!DOCTYPE svg PUBLIC "-//W3C//DTD SVG 20010904//EN"
        "http://www.w3.org/TR/2001/REC-SVG-20010904/DTD/svg10.dtd">
<svg version="1.0" xmlns="http://www.w3.org/2000/svg"
     width="512.000000pt" height="512.000000pt" viewBox="0 0 512.000000 512.000000"
     preserveAspectRatio="xMidYMid meet">

    <g transform="translate(0.000000,512.000000) scale(0.100000,-0.100000)"
       fill="#000000" stroke="none">
        <path d="M2055 4770 c-513 -37 -992 -251 -1370 -612 -301 -287 -518 -661 -619
-1067 -233 -931 175 -1922 999 -2423 326 -199 712 -313 1080 -321 110 -2 123
0 157 21 20 13 47 40 60 60 23 37 23 40 26 422 4 425 1 474 -31 521 -41 60
-66 71 -179 80 -186 16 -318 49 -453 117 -379 189 -615 569 -615 992 0 530
364 975 890 1087 115 24 324 24 440 -1 389 -82 707 -367 829 -744 16 -48 32
-106 36 -129 l7 -43 -289 0 c-259 0 -292 -2 -329 -19 -62 -28 -110 -104 -99
-158 2 -10 7 -31 10 -48 5 -23 147 -171 578 -604 328 -329 586 -579 604 -587
54 -23 113 -18 164 15 24 16 292 278 595 582 594 597 583 584 569 675 -6 46
-46 103 -89 127 -14 8 -111 14 -311 17 l-290 5 -7 75 c-37 381 -218 814 -471
1130 -458 570 -1169 882 -1892 830z m435 -356 c307 -44 600 -167 855 -358 102
-76 284 -258 362 -361 156 -208 260 -423 326 -675 30 -114 45 -219 56 -383 9
-138 21 -171 78 -214 36 -28 39 -28 205 -33 l168 -5 -340 -340 -340 -340 -343
343 -342 342 175 0 c162 0 179 2 220 23 73 36 90 72 90 186 0 114 -20 243 -55
366 -139 479 -520 855 -1005 989 -351 98 -734 58 -1048 -109 -429 -228 -703
-619 -773 -1104 -16 -116 -6 -360 20 -481 121 -549 549 -986 1086 -1108 50
-11 107 -23 128 -27 l37 -6 0 -215 0 -216 -27 6 c-16 3 -53 8 -83 12 -306 36
-667 199 -930 420 -662 554 -859 1510 -468 2276 370 726 1143 1127 1948 1012z"/>
    </g>
</svg>
